# xmcd CD database file
#
# Track frame offsets:
#	150
#	18950
#	36106
#	54161
#	69409
#	92518
#	107536
#	127420
#	142194
#	165655
#	184337
#
# Disc length: 2803 seconds
#
# Revision: 0
# Processed by: cddbd v1.5.1PL0 Copyright (c) Steve Scherf et al.
# Submitted via: CDex 1.51
#
DISCID=940af10b
DTITLE=The Killers - Hot Fuss
DYEAR=2006
DGENRE=New Age
TTITLE0=Jenny Was A Friend Of Mine
TTITLE1=Mr. Brightside
TTITLE2=Smile Like You Mean It
TTITLE3=Somebody Told Me
TTITLE4=All These Things That I've Done
TTITLE5=Andy, You're A Star
TTITLE6=On Top
TTITLE7=Change Your Mind
TTITLE8=Believe Me Natalie
TTITLE9=Midnight Show
TTITLE10=Everything Will Be Alright
EXTD=YEAR: 2006
EXTT0=
EXTT1=
EXTT2=
EXTT3=
EXTT4=
EXTT5=
EXTT6=
EXTT7=
EXTT8=
EXTT9=
EXTT10=
PLAYORDER=
